<svg width="11" height="11" viewBox="0 0 11 11" fill="none" xmlns="http://www.w3.org/2000/svg">
<path d="M1.29289 8.29289C0.902369 8.68342 0.902369 9.31658 1.29289 9.70711C1.68342 10.0976 2.31658 10.0976 2.70711 9.70711L1.29289 8.29289ZM11 1C11 0.447715 10.5523 1.30289e-08 10 4.34497e-07L1 2.23763e-07C0.447715 2.23763e-07 -1.0013e-07 0.447715 -1.0013e-07 1C-1.0013e-07 1.55229 0.447715 2 1 2L9 2L9 10C9 10.5523 9.44771 11 10 11C10.5523 11 11 10.5523 11 10L11 1ZM2.70711 9.70711L10.7071 1.70711L9.29289 0.292894L1.29289 8.29289L2.70711 9.70711Z" fill="white"/>
</svg>
