<svg width="22" height="17" viewBox="0 0 22 17" fill="none" xmlns="http://www.w3.org/2000/svg">
<path fill-rule="evenodd" clip-rule="evenodd" d="M12.2773 6.78553V6.76935C12.2773 6.76859 12.278 6.76797 12.2787 6.76797C12.2794 6.76797 12.28 6.76745 12.2801 6.76677C12.66 4.1887 13.6742 3.19583 15.0595 1.95518C16.2004 0.933485 17.6798 0.35361 19.1972 0.076729C19.7409 -0.0224975 20.2324 0.384055 20.2867 0.934156L20.4104 2.1882C20.4645 2.73734 20.0613 3.22036 19.5235 3.34395C18.6319 3.54886 17.735 3.92036 17.0964 4.49229C16.7571 4.79613 16.4975 5.15051 16.2921 5.53768C15.9813 6.12344 16.475 6.76797 17.1381 6.76797H20.6837C21.236 6.76797 21.6838 7.21569 21.6838 7.76797V15.1744C21.6838 15.7267 21.236 16.1744 20.6838 16.1744H13.2773C12.7251 16.1744 12.2773 15.7267 12.2773 15.1744V6.78553Z" fill="white"/>
<path fill-rule="evenodd" clip-rule="evenodd" d="M0.787109 6.78553V6.76935C0.787109 6.76859 0.787727 6.76797 0.78849 6.76797C0.789174 6.76797 0.789759 6.76745 0.789859 6.76677C1.16974 4.1887 2.18397 3.19583 3.56931 1.95518C4.71015 0.933485 6.18953 0.35361 7.70692 0.076729C8.25071 -0.0224975 8.7422 0.384055 8.79646 0.934156L8.92013 2.1882C8.97429 2.73734 8.57108 3.22036 8.0333 3.34395C7.1417 3.54886 6.24478 3.92036 5.60615 4.49229C5.26687 4.79613 5.00722 5.15051 4.80184 5.53768C4.49111 6.12344 4.98481 6.76797 5.64789 6.76797H9.19351C9.7458 6.76797 10.1935 7.21569 10.1935 7.76797V15.1744C10.1935 15.7267 9.7458 16.1744 9.19352 16.1744H1.78711C1.23482 16.1744 0.787109 15.7267 0.787109 15.1744V6.78553Z" fill="white"/>
</svg>
